<?xml version="1.0" encoding="UTF-8"?>
<!DOCTYPE svg PUBLIC "-//W3C//DTD SVG 1.1//EN" "http://www.w3.org/Graphics/SVG/1.1/DTD/svg11.dtd">
<!-- Creator: CorelDRAW X7 -->
<svg xmlns="http://www.w3.org/2000/svg" xml:space="preserve" width="3000px" height="3000px" version="1.1" style="shape-rendering:geometricPrecision; text-rendering:geometricPrecision; image-rendering:optimizeQuality; fill-rule:evenodd; clip-rule:evenodd"
viewBox="0 0 3000 3000"
 xmlns:xlink="http://www.w3.org/1999/xlink">
 <defs>
  <style type="text/css">
   <![CDATA[
    .fil4 {fill:none}
    .fil2 {fill:#C9C4C3}
    .fil1 {fill:#EF4023}
    .fil3 {fill:yellow}
    .fil0 {fill:white}
   ]]>
  </style>
 </defs>
 <g id="Layer_x0020_1">
  <metadata id="CorelCorpID_0Corel-Layer"/>
  <g id="Aura_x0020_Esport.cdr">
   <g>
    <g>
     <path class="fil0" d="M1510 262c130,101 244,198 342,299 99,101 182,207 249,323 64,113 122,231 163,354 41,123 66,250 65,380 -1,194 -65,343 -159,456 -123,146 -297,232 -455,279l-61 19 37 -52c10,-13 21,-26 33,-39 6,-7 12,-14 18,-21 -26,9 -53,15 -80,21 -13,3 -27,7 -36,9 -61,16 -160,25 -260,17 -77,-6 -156,-24 -218,-57 -84,-46 -162,-110 -229,-183 -71,-78 -129,-167 -168,-254 -38,-86 -61,-179 -69,-278 -8,-100 -1,-207 21,-317l11 -53 66 106c11,-74 35,-151 73,-227 45,-88 109,-175 196,-255l21 -20 67 139c79,-72 147,-161 202,-260 63,-114 109,-241 137,-373l7 -33 27 20z"/>
     <path class="fil1" d="M1142 1244c57,-27 117,-80 206,-179l4 -5 6 -2c167,-45 279,-76 376,-115 89,-36 165,-79 261,-145 -51,-72 -109,-141 -174,-207 -90,-93 -193,-182 -310,-274 -30,124 -75,244 -135,351 -62,113 -140,212 -233,291l-21 18 -65 -136c-73,70 -127,146 -166,223 -47,92 -70,186 -74,273l-4 68 -77 -124c-14,87 -17,171 -11,250 7,95 29,183 65,265 26,58 62,117 104,173 99,65 240,83 305,77 79,-7 194,-54 291,-139l-63 -28c84,-56 123,-145 131,-258 -11,-5 -22,-10 -33,-14 -82,-33 -176,-38 -226,-34 -12,1 -22,-4 -23,33 0,0 0,1 0,1 0,24 0,47 7,72l-286 -187c-38,-24 -34,-54 -31,-84 2,-15 4,-30 -2,-41l0 0c-16,-34 -29,-62 -50,-94l40 0c78,1 133,-2 188,-29z"/>
     <path class="fil1" d="M2142 1342c-88,-155 -205,-240 -392,-232 138,-39 223,-133 264,-272 -124,110 -238,156 -414,208 -81,24 -160,42 -232,61 -33,36 -62,65 -88,90 43,-6 96,-28 188,-70 91,-41 133,2 153,11 -37,-12 -79,-11 -123,7 5,27 0,54 -33,66 -41,13 -71,5 -88,-11 0,0 -1,0 -1,1 -41,19 -80,25 -117,15 -35,30 -67,52 -98,67 -55,26 -106,32 -173,33l0 1c5,10 10,20 15,31 11,23 9,44 6,64 -2,18 -4,34 12,44l0 0 83 54c0,-5 0,-10 0,-16 -1,-20 0,-23 24,-26 215,-26 444,-56 494,-12 62,-18 138,-29 203,-35 -25,-31 -73,-71 -92,-79 58,15 105,38 185,108 -45,10 -88,20 -134,30 11,38 36,82 67,128 -15,-7 -33,-14 -60,-16 25,36 44,101 60,176 -42,-18 -80,-36 -115,-54 13,93 7,196 -43,268 -65,96 -166,142 -351,160 -160,15 -279,-18 -372,-84 59,62 126,115 199,154 56,31 128,46 201,52 94,8 188,-1 246,-16 15,-4 26,-6 36,-9 48,-11 96,-22 136,-48l59 -38 -27 64c-12,28 -29,51 -46,71 43,-16 86,-35 129,-57 188,-104 291,-262 272,-498 -2,-25 -4,-56 -10,-78 15,-3 31,1 45,5 -17,-145 -63,-245 -120,-313 16,-3 36,-6 52,-5zm-402 -32c40,-16 82,-32 164,-57 -69,-37 -121,-50 -175,-67 100,-7 196,10 284,75 -58,6 -145,21 -273,49z"/>
     <path class="fil1" d="M2086 946c-13,77 -42,131 -79,173 91,62 160,149 198,263 -12,-4 -28,-3 -38,-2 49,90 74,170 85,324 -10,-5 -21,-6 -33,-5 10,87 -2,180 -41,293 65,-98 107,-221 108,-374 1,-125 -23,-248 -63,-367 -35,-104 -82,-206 -137,-305z"/>
     <path class="fil2" d="M1698 1578c-124,-51 -271,-58 -413,-50 139,23 239,-3 486,151 -34,-67 -61,-124 -79,-168 -4,14 -3,41 6,67z"/>
     <path class="fil2" d="M1250 1620c-12,-27 -11,-53 3,-71 -12,3 -21,13 -25,39 -21,-27 -44,-39 -64,-41 28,25 57,49 86,73z"/>
     <path class="fil2" d="M1632 1888c-13,-5 -24,-10 -37,-29 52,-70 81,-127 88,-173 -23,-13 -45,-25 -67,-36 -15,85 -53,159 -119,219 12,8 30,16 57,23 -58,78 -130,112 -205,135 128,-3 216,-58 283,-139z"/>
    </g>
    <g>
     <path class="fil1" d="M100 2758l109 -277 23 0c23,0 27,9 31,20l101 257 -60 0 -23 -65 -49 0 -49 0 -23 65 -60 0zm132 -198l-30 83 30 0 30 0 -30 -83z"/>
     <path class="fil1" d="M854 2758l109 -277 23 0c23,0 27,9 31,20l101 257 -60 0 -23 -65 -49 0 -49 0 -23 65 -60 0zm132 -198l-30 83 30 0 30 0 -30 -83z"/>
     <path class="fil1" d="M472 2707l21 0c48,0 52,-31 52,-62l0 -164 56 0 0 170c0,77 -49,107 -94,107l-49 0c-45,0 -94,-30 -94,-107l0 -170 56 0 0 164c0,31 4,62 52,62z"/>
     <path class="fil3" d="M820 2758l26 -65 -4 -15c-6,-19 -15,-38 -34,-47 22,0 48,-26 48,-48l0 -42c0,-26 -30,-58 -55,-60 -50,-5 -116,0 -169,0l0 115 56 0 0 -65 0 -5 78 0c35,0 35,0 35,38l0 3 0 1 0 6 0 4c0,20 -8,28 -35,28l-64 0 -70 63 0 89 56 0 0 -102c23,0 46,0 68,0 18,0 24,1 31,25l22 77 11 0z"/>
     <path class="fil1" d="M1211 2716c0,25 15,41 42,42 53,1 108,0 162,0l0 -51 -148 0 0 -70 137 0 0 -50 -137 0 0 -61 148 0 0 -45 -204 0 0 226 0 9z"/>
     <path class="fil1" d="M1584 2599l-68 -10c-19,-3 -27,-13 -27,-36 0,-20 9,-27 32,-27 15,0 30,0 44,0 37,0 42,10 42,34l51 0c0,-8 0,-1 0,-9 0,-39 -33,-70 -77,-70l-68 0c-37,0 -74,31 -74,56l0 40c0,35 46,50 73,54l69 10c18,3 26,13 26,35 0,20 -7,31 -30,31 -15,0 -30,0 -44,0 -37,0 -44,-16 -44,-41l-50 0c0,8 0,5 0,13 0,39 37,79 93,79l49 0c43,0 77,-37 77,-61l0 -44c0,-35 -46,-50 -74,-54z"/>
     <path class="fil1" d="M2827 2599l-69 -10c-18,-3 -26,-13 -26,-36 0,-20 8,-27 31,-27 15,0 30,0 45,0 37,0 41,10 41,34l51 0c0,-8 0,-1 0,-9 0,-39 -33,-70 -76,-70l-69 0c-36,0 -74,31 -74,56l0 40c0,35 46,50 74,54l68 10c19,3 27,13 27,35 0,20 -8,31 -31,31 -15,0 -29,0 -44,0 -37,0 -43,-16 -43,-41l-51 0c0,8 0,5 0,13 0,39 38,79 94,79l49 0c42,0 76,-37 76,-61l0 -44c0,-35 -46,-50 -73,-54z"/>
     <path class="fil1" d="M688 2526l78 0c35,0 35,0 35,38l0 3 0 1 0 6 0 4c0,20 -8,28 -35,28l-64 0 -70 63 0 89 56 0 0 -102c23,0 46,0 68,0 18,0 24,1 31,25l22 77 11 0 26 -65 -4 -15c-6,-19 -15,-38 -34,-47 22,0 48,-26 48,-48l0 -42c0,-26 -30,-58 -55,-60 -50,-5 -116,0 -169,0l0 115 56 0 0 -65 0 -5z"/>
     <path class="fil1" d="M2269 2596l0 -65 0 -5 78 0c35,0 35,0 35,38l0 3 0 1 0 6 0 4c0,20 -8,28 -35,28l-78 0 0 -5 0 -5zm120 35c22,0 48,-26 48,-48l0 -42c0,-26 -30,-58 -55,-60 -50,-5 -116,0 -169,0l0 277 56 0 0 -102c23,0 46,0 68,0 18,0 24,1 31,25l22 77 56 0 -23 -80c-6,-19 -15,-38 -34,-47z"/>
     <path class="fil1" d="M1836 2526c16,0 27,7 27,26l0 38c0,19 -11,26 -27,26l-91 0 0 -90 91 0zm75 0c-7,-21 -25,-38 -48,-43 -6,-2 -12,-2 -18,-2l-100 0 -51 0 0 45 0 90 0 50 0 92 51 0 0 -92 100 0c6,0 12,-1 18,-2 25,-6 44,-25 49,-48 1,-4 1,-8 1,-12l0 -61c0,-6 -1,-11 -2,-17z"/>
     <path class="fil1" d="M1984 2578c0,-28 20,-52 51,-52l40 0c32,0 52,24 52,52l0 78c0,27 -20,51 -52,51l-40 0c-31,0 -51,-24 -51,-51l0 -78zm43 -97c-15,0 -30,3 -43,9 -33,15 -51,45 -51,81l0 97c0,46 50,90 94,90l57 0c44,0 93,-44 93,-90l0 -97c0,-36 -18,-66 -50,-81 -13,-6 -28,-9 -43,-9l-57 0z"/>
     <polygon class="fil1" points="2583,2526 2583,2758 2533,2758 2533,2526 2446,2526 2446,2481 2670,2481 2670,2526 "/>
    </g>
   </g>
   <polygon class="fil4" points="0,0 3000,0 3000,3000 0,3000 "/>
  </g>
 </g>
</svg>
