<?xml version="1.0" encoding="UTF-8"?>
<!DOCTYPE svg PUBLIC "-//W3C//DTD SVG 1.1//EN" "http://www.w3.org/Graphics/SVG/1.1/DTD/svg11.dtd">
<!-- Creator: CorelDRAW X7 -->
<svg xmlns="http://www.w3.org/2000/svg" xml:space="preserve" width="3000px" height="3000px" version="1.1" style="shape-rendering:geometricPrecision; text-rendering:geometricPrecision; image-rendering:optimizeQuality; fill-rule:evenodd; clip-rule:evenodd"
viewBox="0 0 3000 3000"
 xmlns:xlink="http://www.w3.org/1999/xlink">
 <defs>
  <style type="text/css">
   <![CDATA[
    .fil1 {fill:none}
    .fil0 {fill:#EB162E}
   ]]>
  </style>
 </defs>
 <g id="Layer_x0020_1">
  <metadata id="CorelCorpID_0Corel-Layer"/>
  <g id="Bigetron_x0020_Esport.cdr">
   <path class="fil0" d="M1216 2365l-106 329c122,40 254,61 390,61 136,0 268,-21 390,-61l-106 -329 -568 0zm724 -1146l2 20c-14,137 -66,277 -160,379 334,-158 511,-544 540,-897 -1,-12 -2,-23 -3,-35 -209,-211 -499,-341 -819,-341 -320,0 -610,130 -819,341 -1,12 -2,23 -3,35 29,353 206,739 540,897 -94,-102 -146,-242 -160,-379l2 -20c117,-117 274,-184 440,-184 166,0 323,67 440,184zm-440 -974c325,0 634,124 869,349 53,369 -18,783 -236,1091 -213,-130 -470,90 -383,318 -79,33 -163,50 -250,50 -87,0 -171,-17 -250,-50 87,-228 -170,-448 -383,-318 -218,-308 -289,-722 -236,-1091 235,-225 544,-349 869,-349zm0 1359c122,0 225,-121 257,-285 1,-3 1,-6 2,-9l-2 -17c0,0 -1,-1 -2,-2 -71,-65 -159,-104 -255,-104 -96,0 -184,39 -255,104 -1,1 -2,2 -2,2l-2 17c1,3 1,6 2,9 32,164 135,285 257,285zm483 329l429 430c-128,136 -287,243 -465,311l-119 -370 -656 0 -119 370c-178,-68 -337,-175 -465,-311l429 -430c141,114 307,180 483,180 176,0 342,-66 483,-180zm46 -39c251,-230 417,-620 417,-1063 0,-56 -3,-111 -8,-166 59,67 111,140 156,218l0 -637c59,50 103,90 119,113 25,254 50,509 75,763 39,13 67,49 67,91l0 133 11 0c19,0 34,15 34,34l0 244c0,18 -15,34 -34,34l-11 0 0 132c0,53 -43,95 -95,95l-65 0c-52,161 -135,308 -242,433l-424 -424zm-1058 0c-251,-230 -417,-620 -417,-1063 0,-56 3,-111 8,-166 -59,67 -111,140 -156,218l0 -637c-59,50 -103,90 -119,113 -25,254 -50,509 -75,763 -39,13 -67,49 -67,91l0 133 -11 0c-19,0 -34,15 -34,34l0 244c0,18 15,34 34,34l11 0 0 132c0,53 43,95 95,95l65 0c52,161 135,308 242,433l424 -424z"/>
   <polygon class="fil1" points="0,0 3000,0 3000,3000 0,3000 "/>
  </g>
 </g>
</svg>
