<?xml version="1.0" encoding="UTF-8"?>
<!DOCTYPE svg PUBLIC "-//W3C//DTD SVG 1.1//EN" "http://www.w3.org/Graphics/SVG/1.1/DTD/svg11.dtd">
<!-- Creator: CorelDRAW X7 -->
<svg xmlns="http://www.w3.org/2000/svg" xml:space="preserve" width="3000px" height="3000px" version="1.1" style="shape-rendering:geometricPrecision; text-rendering:geometricPrecision; image-rendering:optimizeQuality; fill-rule:evenodd; clip-rule:evenodd"
viewBox="0 0 3000 3000"
 xmlns:xlink="http://www.w3.org/1999/xlink">
 <defs>
  <style type="text/css">
   <![CDATA[
    .fil3 {fill:none}
    .fil0 {fill:black}
    .fil2 {fill:#ED2324}
    .fil1 {fill:#FFDE00}
   ]]>
  </style>
 </defs>
 <g id="Layer_x0020_1">
  <metadata id="CorelCorpID_0Corel-Layer"/>
  <g id="_1651922678480">
   <path class="fil0" d="M1237 2326c4,-45 17,-101 42,-152 70,15 118,48 156,100 33,44 55,102 64,174l232 0 57 -186 50 -5 -50 191 250 0c112,-301 223,-603 334,-905 122,-39 228,-107 318,-203 -43,0 -87,0 -130,0 40,-12 87,-16 140,-14 31,-26 61,-69 87,-112 22,-37 41,-74 52,-102 37,-23 53,-78 61,-146 -148,-2 -295,-4 -443,-5 -63,-99 -142,-178 -228,-241 -109,-80 -235,-139 -372,-168 16,31 32,62 48,94 -90,-45 -192,-69 -314,-79 -119,-9 -268,4 -403,35 77,63 142,119 201,172 -143,-2 -255,16 -367,48 -82,23 -157,53 -224,88 92,48 160,87 277,144 -152,5 -294,41 -429,97 -141,58 -275,142 -400,248 159,47 318,94 477,141 -248,66 -459,194 -623,385 161,11 323,21 484,32 -75,59 -149,118 -224,177 159,1 317,2 475,3 -42,42 -71,74 -81,89l-98 0 1 222 594 0c-13,-32 -18,-77 -14,-122z"/>
   <path class="fil1" d="M2005 2402c113,-292 226,-584 339,-876 72,-33 160,-79 208,-109 33,-21 61,-41 84,-61 -55,0 -109,0 -164,0 59,-32 129,-49 208,-51 51,-54 98,-116 129,-206 32,-27 52,-64 51,-107 -138,0 -276,-1 -414,-1 -59,-80 -102,-129 -193,-205 -99,-82 -229,-152 -341,-188 17,33 32,66 45,98 -96,-45 -224,-82 -348,-95 -115,-12 -233,-10 -362,19 74,61 148,123 223,184 -202,-14 -399,17 -590,112 105,53 209,107 313,161 -309,2 -594,96 -851,302 179,56 359,112 539,168 -258,47 -494,170 -677,343 161,11 322,21 483,32 -68,58 -137,115 -205,173 94,0 189,0 283,0 86,-100 174,-187 265,-262 -104,-16 -208,-31 -313,-47 114,-112 280,-201 495,-255 -143,-67 -287,-135 -430,-202 112,-59 260,-107 399,-136 115,-24 236,-39 362,-34 -94,-64 -187,-128 -280,-193 158,-38 348,-40 529,12 -48,-59 -95,-119 -143,-178 169,41 317,137 439,302 -99,1 -192,19 -280,50 34,21 69,41 103,62 -224,71 -385,137 -443,176 56,23 112,45 168,68 -177,76 -306,149 -375,219 54,8 108,16 162,24 -127,87 -320,241 -361,276 -106,91 -213,181 -293,290 -23,0 -45,0 -68,0 0,45 0,90 0,135l202 0c21,-158 152,-280 320,-280 168,0 305,119 321,280l152 0 65 -181 132 -11 -53 192 165 0z"/>
   <path class="fil1" d="M1194 2402c-7,-22 -8,-50 -2,-86 7,-34 20,-80 39,-124 -47,-1 -114,37 -150,75 -44,46 -58,88 -59,135l172 0z"/>
   <g>
    <polygon class="fil2" points="2388,1096 2424,1094 2093,948 2089,948 2172,1023 2168,1062 2444,1159 "/>
    <polygon class="fil2" points="2392,1091 2428,1089 2097,944 2093,944 2176,1019 2172,1058 2447,1154 "/>
   </g>
  </g>
  <rect class="fil3" width="3000" height="3000"/>
 </g>
</svg>
