<?xml version="1.0" encoding="iso-8859-1"?>
<!-- Generator: Adobe Illustrator 19.0.0, SVG Export Plug-In . SVG Version: 6.00 Build 0)  -->
<svg version="1.1" id="Layer_1" xmlns="http://www.w3.org/2000/svg" xmlns:xlink="http://www.w3.org/1999/xlink" x="0px" y="0px"
	 viewBox="0 0 512 512" style="enable-background:new 0 0 512 512;" xml:space="preserve">
<g>
	<g>
		<path d="M496.033,418.829L186.383,109.18l108.476-0.001c0.002,0,0,0,0.002,0c30.096,0,54.586-24.487,54.589-54.588
			c0-14.582-5.679-28.292-15.989-38.603C323.151,5.678,309.442,0,294.861,0L54.593,0.001c-0.003,0-0.005,0-0.009,0
			c-14.579,0-28.285,5.678-38.595,15.987C5.677,26.301-0.001,40.01,0.001,54.591L0,294.859c0,14.581,5.678,28.291,15.989,38.6
			c10.311,10.311,24.02,15.99,38.6,15.989c0.001,0,0.002,0,0.004,0c14.564,0,28.268-5.682,38.587-16.001
			c10.319-10.32,16-24.025,16-38.59V186.382l309.649,309.65C429.126,506.328,442.835,512,457.43,512
			c14.595-0.001,28.304-5.673,38.601-15.969C506.328,485.734,512,472.025,512,457.43C512,442.835,506.329,429.126,496.033,418.829z
			 M481.606,481.607c-6.445,6.446-15.031,9.995-24.177,9.995c-9.146,0-17.732-3.55-24.176-9.994l-327.06-327.06
			c-1.952-1.951-4.56-2.987-7.215-2.987c-1.313,0-2.638,0.254-3.901,0.776c-3.81,1.579-6.296,5.297-6.296,9.423v133.099
			c0,9.117-3.562,17.699-10.027,24.165c-6.465,6.466-15.045,10.027-24.161,10.027c-0.003-0.001-0.005-0.001-0.005,0
			c-9.131,0.001-17.717-3.555-24.176-10.015c-6.457-6.457-10.014-15.044-10.014-24.177l0.001-240.27
			c-0.002-9.132,3.554-17.718,10.014-24.176c6.457-6.458,15.04-10.014,24.172-10.014c0.002,0,0.005,0,0.006,0l240.27-0.001
			c9.132,0,17.718,3.555,24.176,10.015c6.459,6.458,10.016,15.046,10.016,24.177c-0.002,18.853-15.341,34.192-34.193,34.191
			l-133.1,0.001c-4.126,0-7.844,2.486-9.423,6.296c-1.579,3.811-0.707,8.198,2.21,11.115l327.06,327.061
			c6.445,6.444,9.993,15.03,9.993,24.176C491.601,466.577,488.051,475.164,481.606,481.607z"/>
	</g>
</g>
<g>
	<g>
		<path d="M50.685,184.496c-5.633,0-10.199,4.567-10.199,10.199v3.832c0,5.632,4.566,10.199,10.199,10.199
			s10.199-4.566,10.199-10.199v-3.832C60.884,189.064,56.318,184.496,50.685,184.496z"/>
	</g>
</g>
<g>
	<g>
		<path d="M50.685,46.172c-5.633,0-10.199,4.567-10.199,10.199v100.918c0,5.632,4.566,10.199,10.199,10.199
			s10.199-4.567,10.199-10.199V56.371C60.884,50.739,56.318,46.172,50.685,46.172z"/>
	</g>
</g>
<g>
</g>
<g>
</g>
<g>
</g>
<g>
</g>
<g>
</g>
<g>
</g>
<g>
</g>
<g>
</g>
<g>
</g>
<g>
</g>
<g>
</g>
<g>
</g>
<g>
</g>
<g>
</g>
<g>
</g>

</svg>
